<svg width="310" height="152" viewBox="0 0 310 152" fill="none" xmlns="http://www.w3.org/2000/svg">
<path d="M0 64C0 46.3269 14.3269 32 32 32H278C295.673 32 310 46.3269 310 64V120C310 137.673 295.673 152 278 152H32C14.3269 152 0 137.673 0 120V64Z" fill="#A7A7A7"/>
<path d="M0 32C0 14.3269 14.3269 0 32 0H278C295.673 0 310 14.3269 310 32V88C310 105.673 295.673 120 278 120H32C14.3269 120 0 105.673 0 88V32Z" fill="white"/>
<path d="M278 117V120H32L32 117H278ZM307 88V32C307 15.9837 294.016 3 278 3H32C15.9837 3 3 15.9837 3 32V88C3 104.016 15.9837 117 32 117L32 120C14.3269 120 0 105.673 0 88V32C0 14.3269 14.3269 0 32 0H278C295.673 0 310 14.3269 310 32V88C310 105.673 295.673 120 278 120V117C294.016 117 307 104.016 307 88Z" fill="#C1C1C1"/>
<path d="M80 35H87.0023L91.5198 44.2885H91.7005L96.2181 35H103.22L94.7273 50.6743V57.8639H88.493V50.6743L80 35Z" fill="#2C2C2C"/>
<path d="M103.677 57.8639V35H120.347V40.0015H109.957V43.9312H119.489V48.9327H109.957V52.8624H120.302V57.8639H103.677Z" fill="#2C2C2C"/>
<path d="M121.871 57.8639V35H131.855C133.572 35 135.074 35.3089 136.361 35.9266C137.649 36.5444 138.65 37.4338 139.366 38.5948C140.081 39.7559 140.438 41.1477 140.438 42.7702C140.438 44.4076 140.07 45.7882 139.332 46.912C138.601 48.0359 137.574 48.8843 136.248 49.4574C134.931 50.0305 133.391 50.317 131.629 50.317H125.666V45.4942H130.364C131.102 45.4942 131.731 45.4049 132.25 45.2262C132.777 45.0402 133.18 44.7462 133.459 44.3443C133.745 43.9424 133.888 43.4177 133.888 42.7702C133.888 42.1152 133.745 41.5831 133.459 41.1737C133.18 40.7569 132.777 40.4518 132.25 40.2583C131.731 40.0573 131.102 39.9568 130.364 39.9568H128.151V57.8639H121.871ZM135.424 47.3697L141.206 57.8639H134.385L128.738 47.3697H135.424Z" fill="#2C2C2C"/>
<path d="M150.425 57.8639H141.525V35H150.334C152.713 35 154.769 35.4577 156.501 36.3732C158.24 37.2812 159.58 38.5911 160.521 40.3029C161.47 42.0073 161.944 44.0503 161.944 46.432C161.944 48.8136 161.474 50.8604 160.533 52.5722C159.591 54.2766 158.259 55.5865 156.535 56.5019C154.81 57.4099 152.774 57.8639 150.425 57.8639ZM147.804 52.5945H150.199C151.343 52.5945 152.318 52.4122 153.124 52.0475C153.937 51.6828 154.554 51.0539 154.976 50.1607C155.405 49.2676 155.62 48.0247 155.62 46.432C155.62 44.8392 155.401 43.5963 154.965 42.7032C154.536 41.8101 153.903 41.1811 153.067 40.8165C152.239 40.4518 151.223 40.2694 150.018 40.2694H147.804V52.5945Z" fill="#2C2C2C"/>
<path d="M167.808 57.8639H161.032L168.667 35H177.25L184.885 57.8639H178.108L173.049 41.2965H172.868L167.808 57.8639ZM166.543 48.8434H179.283V53.4876H166.543V48.8434Z" fill="#2C2C2C"/>
<path d="M205.535 35V57.8639H200.295L191.937 45.8514H191.802V57.8639H185.522V35H190.853L199.075 46.9678H199.256V35H205.535Z" fill="#2C2C2C"/>
<path d="M212.924 57.8639H206.147L213.782 35H222.365L230 57.8639H223.224L218.164 41.2965H217.983L212.924 57.8639ZM211.659 48.8434H224.398V53.4876H211.659V48.8434Z" fill="#2C2C2C"/>
<path d="M203.568 63.1832L225.555 65.3337C226.754 65.451 227.195 66.9539 226.246 67.6875L218.363 73.7792C218.135 73.9552 217.971 74.1995 217.896 74.4753L215.287 84.0237C214.973 85.1736 213.401 85.3567 212.825 84.3104L202.264 65.1277C201.751 64.1967 202.501 63.0789 203.568 63.1832Z" fill="#FF003C"/>
<path d="M92.2964 84.3379H83.3967V61.474H92.206C94.5853 61.474 96.6408 61.9317 98.3725 62.8472C100.112 63.7552 101.452 65.0651 102.393 66.7769C103.342 68.4813 103.816 70.5243 103.816 72.906C103.816 75.2876 103.346 77.3344 102.404 79.0462C101.463 80.7506 100.131 82.0605 98.4064 82.9759C96.6822 83.8839 94.6455 84.3379 92.2964 84.3379ZM89.6762 79.0685H92.0705C93.2149 79.0685 94.19 78.8862 94.9956 78.5215C95.8088 78.1568 96.4262 77.5279 96.8478 76.6348C97.277 75.7416 97.4916 74.4987 97.4916 72.906C97.4916 71.3132 97.2732 70.0703 96.8365 69.1772C96.4074 68.2841 95.7749 67.6552 94.9392 67.2905C94.1109 66.9258 93.0945 66.7434 91.8898 66.7434H89.6762V79.0685Z" fill="#2C2C2C"/>
<path d="M105.131 84.3379V61.474H121.801V66.4755H111.411V70.4052H120.943V75.4067H111.411V79.3365H121.756V84.3379H105.131Z" fill="#2C2C2C"/>
<path d="M135.794 68.619C135.734 67.8747 135.451 67.2942 134.947 66.8774C134.45 66.4606 133.693 66.2522 132.677 66.2522C132.029 66.2522 131.498 66.3304 131.084 66.4867C130.678 66.6355 130.377 66.8402 130.181 67.1007C129.985 67.3612 129.883 67.6589 129.876 67.9938C129.861 68.2692 129.91 68.5185 130.023 68.7418C130.143 68.9576 130.331 69.1549 130.587 69.3335C130.843 69.5047 131.171 69.661 131.57 69.8024C131.969 69.9438 132.443 70.0703 132.993 70.182L134.89 70.5839C136.17 70.8518 137.266 71.2053 138.177 71.6444C139.088 72.0836 139.833 72.6008 140.413 73.1962C140.993 73.7842 141.418 74.4466 141.689 75.1834C141.968 75.9203 142.111 76.7241 142.118 77.5949C142.111 79.0983 141.731 80.371 140.978 81.413C140.225 82.4549 139.148 83.2476 137.748 83.7909C136.355 84.3342 134.68 84.6059 132.722 84.6059C130.712 84.6059 128.957 84.3119 127.459 83.7239C125.968 83.136 124.809 82.2317 123.98 81.0111C123.16 79.783 122.746 78.2126 122.738 76.2998H128.701C128.739 76.9995 128.916 77.5874 129.232 78.0638C129.548 78.5401 129.993 78.9011 130.565 79.1467C131.145 79.3923 131.833 79.5151 132.632 79.5151C133.302 79.5151 133.863 79.4332 134.314 79.2695C134.766 79.1057 135.109 78.8787 135.342 78.5885C135.576 78.2982 135.696 77.967 135.704 77.5949C135.696 77.2451 135.579 76.9399 135.353 76.6794C135.135 76.4115 134.774 76.1733 134.269 75.9649C133.765 75.7491 133.083 75.5481 132.225 75.3621L129.921 74.8708C127.873 74.4317 126.258 73.6986 125.076 72.6715C123.901 71.637 123.318 70.2266 123.325 68.4404C123.318 66.989 123.709 65.7201 124.5 64.6334C125.298 63.5394 126.401 62.6872 127.809 62.0769C129.225 61.4666 130.847 61.1614 132.677 61.1614C134.544 61.1614 136.159 61.4703 137.522 62.088C138.885 62.7058 139.935 63.5766 140.673 64.7004C141.418 65.8168 141.795 67.123 141.802 68.619H135.794Z" fill="#2C2C2C"/>
<path d="M149.196 61.474V84.3379H142.917V61.474H149.196Z" fill="#2C2C2C"/>
<path d="M165.603 69.0209C165.505 68.6264 165.351 68.2804 165.14 67.9826C164.929 67.6775 164.666 67.4207 164.35 67.2123C164.041 66.9965 163.679 66.8365 163.265 66.7323C162.859 66.6206 162.411 66.5648 161.921 66.5648C160.867 66.5648 159.967 66.8141 159.222 67.3128C158.484 67.8115 157.919 68.5297 157.528 69.4675C157.144 70.4052 156.952 71.5365 156.952 72.8613C156.952 74.201 157.136 75.3472 157.505 76.2998C157.874 77.2525 158.424 77.9819 159.154 78.488C159.885 78.9941 160.792 79.2471 161.876 79.2471C162.832 79.2471 163.627 79.1095 164.259 78.8341C164.899 78.5587 165.377 78.168 165.693 77.6619C166.01 77.1558 166.168 76.5603 166.168 75.8756L167.252 75.9873H161.966V71.5663H172.221V74.7369C172.221 76.8208 171.773 78.6034 170.877 80.0844C169.989 81.5581 168.762 82.6894 167.196 83.4783C165.637 84.2598 163.849 84.6505 161.831 84.6505C159.58 84.6505 157.603 84.1779 155.902 83.2327C154.2 82.2875 152.871 80.9404 151.915 79.1913C150.966 77.4423 150.492 75.3621 150.492 72.9506C150.492 71.0602 150.782 69.3856 151.361 67.9268C151.949 66.4681 152.762 65.2363 153.801 64.2315C154.84 63.2193 156.041 62.4565 157.404 61.9429C158.767 61.4219 160.227 61.1614 161.786 61.1614C163.156 61.1614 164.429 61.3549 165.603 61.742C166.785 62.1215 167.828 62.6648 168.732 63.3719C169.643 64.0715 170.377 64.9014 170.934 65.8615C171.491 66.8216 171.83 67.8747 171.95 69.0209H165.603Z" fill="#2C2C2C"/>
<path d="M193.572 61.474V84.3379H188.332L179.974 72.3255H179.839V84.3379H173.559V61.474H178.89L187.112 73.4419H187.293V61.474H193.572Z" fill="#2C2C2C"/>
</svg>
