<svg width="20" height="20" viewBox="0 0 20 20" fill="none" xmlns="http://www.w3.org/2000/svg">
<path d="M10 0C15.5228 0 20 4.47715 20 10C20 15.5228 15.5228 20 10 20C4.47715 20 0 15.5228 0 10C0 4.47715 4.47715 0 10 0ZM7.02637 11C7.12806 12.9665 7.52351 14.6947 8.08496 15.958C8.41294 16.696 8.77842 17.2311 9.13281 17.5684C9.48195 17.9006 9.77315 18 10 18C10.2269 18 10.518 17.9006 10.8672 17.5684C11.2216 17.2311 11.5871 16.696 11.915 15.958C12.4765 14.6947 12.8719 12.9665 12.9736 11H7.02637ZM2.06445 11C2.40263 13.7111 4.09575 15.9992 6.44629 17.167C6.38161 17.0373 6.31782 16.9055 6.25781 16.7705C5.56803 15.2185 5.1266 13.204 5.02344 11H2.06445ZM14.9766 11C14.8734 13.204 14.432 15.2185 13.7422 16.7705C13.6821 16.9056 13.6175 17.0372 13.5527 17.167C15.9037 15.9994 17.5973 13.7114 17.9355 11H14.9766ZM13.5527 2.83203C13.6176 2.96209 13.682 3.09409 13.7422 3.22949C14.432 4.7815 14.8734 6.79597 14.9766 9H17.9355C17.5973 6.28848 15.9039 3.9996 13.5527 2.83203ZM10 2C9.77315 2 9.48195 2.09945 9.13281 2.43164C8.77842 2.76891 8.41294 3.30403 8.08496 4.04199C7.52351 5.30527 7.12806 7.03348 7.02637 9H12.9736C12.8719 7.03348 12.4765 5.30527 11.915 4.04199C11.5871 3.30403 11.2216 2.76891 10.8672 2.43164C10.518 2.09945 10.2269 2 10 2ZM6.44629 2.83203C4.09555 3.99972 2.40265 6.28879 2.06445 9H5.02344C5.1266 6.79597 5.56803 4.7815 6.25781 3.22949C6.31794 3.09422 6.38147 2.96197 6.44629 2.83203Z" fill="#2C2C2C"/>
</svg>
