<svg width="150" height="50" viewBox="0 0 150 50" fill="none" xmlns="http://www.w3.org/2000/svg">
<path d="M0 0H7.00225L11.5198 9.28847H11.7005L16.2181 0H23.2204L14.7273 15.6743V22.8639H8.49305V15.6743L0 0Z" fill="white"/>
<path d="M23.6772 22.8639V0H40.3471V5.00148H29.9566V8.93122H39.4887V13.9327H29.9566V17.8624H40.3019V22.8639H23.6772Z" fill="white"/>
<path d="M41.8712 22.8639V0H51.855C53.5717 0 55.0738 0.308871 56.3613 0.926614C57.6488 1.54436 58.6502 2.43376 59.3655 3.59482C60.0808 4.75588 60.4384 6.14766 60.4384 7.77016C60.4384 9.40755 60.0695 10.7882 59.3316 11.912C58.6013 13.0359 57.5735 13.8843 56.2484 14.4574C54.9308 15.0305 53.391 15.317 51.6292 15.317H45.6659V10.4942H50.3642C51.1021 10.4942 51.7308 10.4049 52.2503 10.2262C52.7774 10.0402 53.1802 9.74619 53.4588 9.34429C53.7449 8.94239 53.8879 8.41768 53.8879 7.77016C53.8879 7.11521 53.7449 6.58305 53.4588 6.17371C53.1802 5.75692 52.7774 5.45177 52.2503 5.25826C51.7308 5.0573 51.1021 4.95683 50.3642 4.95683H48.1506V22.8639H41.8712ZM55.4239 12.3697L61.2064 22.8639H54.3849L48.7379 12.3697H55.4239Z" fill="white"/>
<path d="M70.4245 22.8639H61.5249V0H70.3342C72.7135 0 74.769 0.457725 76.5007 1.37318C78.24 2.28118 79.5802 3.59109 80.5213 5.30291C81.47 7.00729 81.9444 9.0503 81.9444 11.432C81.9444 13.8136 81.4738 15.8604 80.5326 17.5722C79.5915 19.2766 78.2588 20.5865 76.5346 21.5019C74.8104 22.4099 72.7737 22.8639 70.4245 22.8639ZM67.8044 17.5945H70.1987C71.3431 17.5945 72.3182 17.4122 73.1238 17.0475C73.937 16.6828 74.5544 16.0539 74.976 15.1607C75.4052 14.2676 75.6198 13.0247 75.6198 11.432C75.6198 9.83923 75.4014 8.5963 74.9647 7.70318C74.5355 6.81006 73.9031 6.18115 73.0673 5.81646C72.2391 5.45177 71.2227 5.26942 70.018 5.26942H67.8044V17.5945Z" fill="white"/>
<path d="M87.8082 22.8639H81.0318L88.6665 0H97.2499L104.885 22.8639H98.1083L93.0486 6.29651H92.8679L87.8082 22.8639ZM86.5433 13.8434H99.2828V18.4876H86.5433V13.8434Z" fill="white"/>
<path d="M125.535 0V22.8639H120.295L111.937 10.8514H111.802V22.8639H105.522V0H110.853L119.075 11.9678H119.256V0H125.535Z" fill="white"/>
<path d="M132.924 22.8639H126.147L133.782 0H142.365L150 22.8639H143.224L138.164 6.29651H137.983L132.924 22.8639ZM131.659 13.8434H144.398V18.4876H131.659V13.8434Z" fill="white"/>
<path d="M123.568 28.1832L145.555 30.3337C146.754 30.451 147.195 31.9539 146.246 32.6875L138.363 38.7792C138.135 38.9552 137.971 39.1995 137.896 39.4753L135.287 49.0237C134.973 50.1736 133.401 50.3567 132.825 49.3104L122.264 30.1277C121.751 29.1967 122.501 28.0789 123.568 28.1832Z" fill="#FF003C"/>
<path d="M12.2964 49.3379H3.39674V26.474H12.206C14.5853 26.474 16.6408 26.9317 18.3725 27.8472C20.1118 28.7552 21.452 30.0651 22.3932 31.7769C23.3419 33.4813 23.8162 35.5243 23.8162 37.906C23.8162 40.2876 23.3456 42.3344 22.4045 44.0462C21.4633 45.7506 20.1306 47.0605 18.4064 47.9759C16.6822 48.8839 14.6455 49.3379 12.2964 49.3379ZM9.67618 44.0685H12.0705C13.215 44.0685 14.19 43.8862 14.9956 43.5215C15.8088 43.1568 16.4262 42.5279 16.8478 41.6348C17.277 40.7416 17.4916 39.4987 17.4916 37.906C17.4916 36.3132 17.2732 35.0703 16.8365 34.1772C16.4074 33.2841 15.7749 32.6552 14.9392 32.2905C14.1109 31.9258 13.0945 31.7434 11.8898 31.7434H9.67618V44.0685Z" fill="white"/>
<path d="M25.1314 49.3379V26.474H41.8013V31.4755H31.4108V35.4052H40.9429V40.4067H31.4108V44.3365H41.7561V49.3379H25.1314Z" fill="white"/>
<path d="M55.7939 33.619C55.7337 32.8747 55.4513 32.2942 54.9468 31.8774C54.4499 31.4606 53.6932 31.2522 52.6768 31.2522C52.0292 31.2522 51.4984 31.3304 51.0843 31.4867C50.6777 31.6355 50.3766 31.8402 50.1808 32.1007C49.985 32.3612 49.8834 32.6589 49.8759 32.9938C49.8608 33.2692 49.9097 33.5185 50.0227 33.7418C50.1432 33.9576 50.3314 34.1549 50.5874 34.3335C50.8434 34.5047 51.1709 34.661 51.57 34.8024C51.969 34.9438 52.4434 35.0703 52.993 35.182L54.8904 35.5839C56.1704 35.8518 57.2659 36.2053 58.1769 36.6444C59.088 37.0836 59.8334 37.6008 60.4131 38.1962C60.9929 38.7842 61.4183 39.4466 61.6893 40.1834C61.9679 40.9203 62.111 41.7241 62.1185 42.5949C62.111 44.0983 61.7307 45.371 60.9778 46.413C60.2249 47.4549 59.1482 48.2476 57.7477 48.7909C56.3548 49.3342 54.6796 49.6059 52.7219 49.6059C50.7116 49.6059 48.9573 49.3119 47.459 48.7239C45.9682 48.1359 44.8086 47.2317 43.9804 46.0111C43.1597 44.783 42.7456 43.2126 42.7381 41.2998H48.7013C48.7389 41.9995 48.9159 42.5874 49.2321 43.0638C49.5483 43.5401 49.9926 43.9011 50.5648 44.1467C51.1445 44.3923 51.8335 44.5151 52.6316 44.5151C53.3017 44.5151 53.8626 44.4332 54.3144 44.2695C54.7661 44.1057 55.1087 43.8787 55.3421 43.5885C55.5755 43.2982 55.696 42.967 55.7035 42.5949C55.696 42.2451 55.5793 41.9399 55.3534 41.6794C55.1351 41.4115 54.7737 41.1733 54.2692 40.9649C53.7647 40.7491 53.0833 40.5481 52.225 40.3621L49.921 39.8709C47.8731 39.4317 46.258 38.6986 45.0759 37.6715C43.9014 36.637 43.3178 35.2266 43.3254 33.4404C43.3178 31.989 43.7094 30.7201 44.4999 29.6334C45.298 28.5394 46.4011 27.6872 47.8091 27.0769C49.2246 26.4666 50.8471 26.1614 52.6768 26.1614C54.544 26.1614 56.1591 26.4703 57.5219 27.088C58.8847 27.7058 59.935 28.5766 60.6729 29.7004C61.4183 30.8168 61.7947 32.123 61.8023 33.619H55.7939Z" fill="white"/>
<path d="M69.1964 26.474V49.3379H62.917V26.474H69.1964Z" fill="white"/>
<path d="M85.6031 34.0209C85.5053 33.6264 85.3509 33.2804 85.1401 32.9826C84.9293 32.6775 84.6657 32.4207 84.3495 32.2123C84.0408 31.9965 83.6794 31.8365 83.2653 31.7323C82.8587 31.6206 82.4107 31.5648 81.9213 31.5648C80.8672 31.5648 79.9675 31.8141 79.2221 32.3128C78.4842 32.8115 77.9195 33.5297 77.528 34.4675C77.144 35.4052 76.952 36.5365 76.952 37.8613C76.952 39.201 77.1364 40.3472 77.5054 41.2998C77.8743 42.2525 78.424 42.9819 79.1543 43.488C79.8846 43.9941 80.7919 44.2471 81.8761 44.2471C82.8324 44.2471 83.6267 44.1095 84.2592 43.8341C84.8991 43.5587 85.3773 43.168 85.6935 42.6619C86.0097 42.1558 86.1678 41.5603 86.1678 40.8756L87.2521 40.9873H81.9665V36.5663H92.2214V39.7369C92.2214 41.8208 91.7734 43.6034 90.8774 45.0844C89.989 46.5581 88.7617 47.6894 87.1956 48.4783C85.637 49.2598 83.8488 49.6505 81.831 49.6505C79.5797 49.6505 77.6033 49.1779 75.9016 48.2327C74.2 47.2875 72.8711 45.9404 71.9149 44.1913C70.9662 42.4423 70.4918 40.3621 70.4918 37.9506C70.4918 36.0602 70.7817 34.3856 71.3615 32.9268C71.9488 31.4681 72.7619 30.2363 73.801 29.2315C74.84 28.2193 76.0409 27.4565 77.4037 26.9429C78.7665 26.4219 80.2272 26.1614 81.7858 26.1614C83.1561 26.1614 84.4286 26.3549 85.6031 26.742C86.7852 27.1215 87.828 27.6648 88.7316 28.3719C89.6426 29.0715 90.3767 29.9014 90.9339 30.8615C91.491 31.8216 91.8299 32.8747 91.9503 34.0209H85.6031Z" fill="white"/>
<path d="M113.572 26.474V49.3379H108.332L99.9741 37.3255H99.8386V49.3379H93.5592V26.474H98.8899L107.112 38.4419H107.293V26.474H113.572Z" fill="white"/>
</svg>
