<svg width="20" height="20" viewBox="0 0 20 20" fill="none" xmlns="http://www.w3.org/2000/svg">
<path d="M18 10C18 5.58172 14.4183 2 10 2C5.58172 2 2 5.58172 2 10C2 14.4183 5.58172 18 10 18C14.4183 18 18 14.4183 18 10ZM10.0098 13C10.5621 13 11.0098 13.4477 11.0098 14V14.0098C11.0098 14.5621 10.5621 15.0098 10.0098 15.0098H10C9.44771 15.0098 9 14.5621 9 14.0098V14C9 13.4477 9.44771 13 10 13H10.0098ZM11 7C11 6.74257 10.9024 6.48842 10.707 6.29297C10.5111 6.09707 10.2561 5.99955 9.99805 6C9.77338 6.00043 9.55175 6.07538 9.36914 6.22461L9.2168 6.36133C8.82411 6.68154 8.24501 6.65883 7.87891 6.29297C7.48841 5.90248 7.48847 5.26944 7.87891 4.87891C8.46314 4.29467 9.23064 4.00134 9.99512 4C10.7629 3.99876 11.5343 4.29206 12.1211 4.87891C12.7066 5.46449 13 6.23382 13 7C13 7.76616 12.7066 8.53555 12.1211 9.12109C11.7939 9.44822 11.4083 9.68075 10.999 9.8252L11 9.99609C11.0019 10.5482 10.556 10.9978 10.0039 11C9.45162 11.0019 9.00195 10.5552 9 10.0029L8.99609 9.00293C8.99526 8.73695 9.10114 8.48122 9.28906 8.29297C9.477 8.10488 9.73214 7.99958 9.99805 8C10.2561 8.00045 10.5111 7.90287 10.707 7.70703C10.9024 7.51162 11 7.25741 11 7ZM20 10C20 15.5228 15.5228 20 10 20C4.47715 20 0 15.5228 0 10C0 4.47715 4.47715 0 10 0C15.5228 0 20 4.47715 20 10Z" fill="#A8A8A8"/>
</svg>
