<svg width="18" height="18" viewBox="0 0 18 18" fill="none" xmlns="http://www.w3.org/2000/svg">
<path d="M9.99952 16.9996C9.99952 17.5518 9.55183 17.9994 8.99963 17.9995C8.44735 17.9995 7.99974 17.5519 7.99974 16.9996L8.00043 9.99965H0.999796C0.447511 9.99965 -9.83307e-05 9.55204 -9.76563e-05 8.99976C-9.83307e-05 8.44747 0.447511 7.99986 0.999796 7.99986H8.00043L7.99974 0.99992C7.99974 0.447635 8.44735 2.62866e-05 8.99963 2.6708e-05C9.55183 0.000124025 9.99952 0.447696 9.99952 0.99992L10.0002 7.99986L16.9995 7.99986C17.5518 7.99986 17.9994 8.44747 17.9994 8.99976C17.9994 9.55204 17.5518 9.99965 16.9995 9.99965L10.0002 9.99965L9.99952 16.9996Z" fill="#2C2C2C"/>
</svg>
